<svg xmlns="http://www.w3.org/2000/svg" version="1.1" xmlns:xlink="http://www.w3.org/1999/xlink" xmlns:svgjs="http://svgjs.dev/svgjs" width="1440" height="560" preserveAspectRatio="none" viewBox="0 0 1440 560"><g mask="url(&quot;#SvgjsMask1037&quot;)" fill="none"><path d="M1440 0L1231.05 0L1440 248.52z" fill="rgba(255, 255, 255, .1)"></path><path d="M1231.05 0L1440 248.52L1440 421.12L865.42 0z" fill="rgba(255, 255, 255, .075)"></path><path d="M865.4200000000001 0L1440 421.12L1440 461.38L661.74 0z" fill="rgba(255, 255, 255, .05)"></path><path d="M661.74 0L1440 461.38L1440 479.86L437.15999999999997 0z" fill="rgba(255, 255, 255, .025)"></path><path d="M0 560L515.56 560L0 551.37z" fill="rgba(0, 0, 0, .1)"></path><path d="M0 551.37L515.56 560L681.3399999999999 560L0 526.84z" fill="rgba(0, 0, 0, .075)"></path><path d="M0 526.84L681.3399999999999 560L1046.6699999999998 560L0 329.31000000000006z" fill="rgba(0, 0, 0, .05)"></path><path d="M0 329.31L1046.6699999999998 560L1320.4199999999998 560L0 301.16z" fill="rgba(0, 0, 0, .025)"></path></g><defs><mask id="SvgjsMask1037"><rect width="1440" height="560" fill="#ffffff"></rect></mask></defs></svg>